<svg xmlns="http://www.w3.org/2000/svg" fill="none" viewBox="34 34 158 130"><g clip-path="url(#a)"><mask id="b" width="158" height="130" x="34" y="34" maskUnits="userSpaceOnUse" style="mask-type:alpha"><path fill="#fff" d="M68.737 127.206c10.177 0 18.423 8.233 18.423 18.396 0 2.138-.38 4.178-1.05 6.087-.16-.18-.32-.36-.49-.53-5.355-5.346-12.23-7.145-15.352-4.027-3.121 3.128-1.32 9.983 4.033 15.329.17.17.34.33.52.489a18.3 18.3 0 0 1-6.084 1.05c-10.177 0-18.423-8.235-18.423-18.398s8.246-18.396 18.423-18.396m88.508 0c10.177 0 18.423 8.234 18.424 18.396 0 10.163-8.247 18.398-18.424 18.398a18.3 18.3 0 0 1-6.084-1.05c.17-.159.35-.319.52-.489 5.353-5.346 7.155-12.211 4.034-15.329-3.133-3.118-9.998-1.319-15.351 4.027-.18.18-.331.35-.501.53a18.3 18.3 0 0 1-1.051-6.087c0-10.163 8.246-18.396 18.423-18.396zm-44.247-52.175c16.001 0 30.972 3.758 42.17 10.593 10.457 6.376 16.221 14.58 16.221 23.104 0 5.166-2.151 10.203-6.134 14.799a23.3 23.3 0 0 0-8.033-1.428c-6.282.002-12.193 2.44-16.654 6.886a23.5 23.5 0 0 0-6.194 11.051c-6.725 1.559-13.931 2.409-21.376 2.409s-14.65-.85-21.375-2.409a23.53 23.53 0 0 0-6.194-11.051c-4.463-4.447-10.368-6.886-16.652-6.886-2.792 0-5.494.509-8.036 1.428-3.992-4.596-6.134-9.633-6.134-14.799 0-8.524 5.765-16.718 16.222-23.104 11.198-6.825 26.168-10.593 42.169-10.593m60.521 16.78c10.167 0 18.442 8.244 18.442 18.386l-.009.01v2.589h-13.741c3.582 2.957 5.894 7.075 6.515 11.701.65 4.877-.631 9.714-3.623 13.622l-1.15 1.498a23.4 23.4 0 0 0-6.105-10.632c-.801-.8-1.661-1.509-2.551-2.179 3.492-4.487 5.663-9.373 6.353-14.479.161-1.19.261-2.39.261-3.599 0-5.965-1.991-11.69-5.743-16.917zm-119.724-.012c-3.753 5.227-5.745 10.953-5.745 16.919 0 1.209.1 2.408.26 3.597.69 5.106 2.861 9.994 6.354 14.481l-.009-.01c-.89.669-1.752 1.379-2.553 2.178A23.4 23.4 0 0 0 46 139.596l-1.152-1.498c-2.992-3.907-4.273-8.744-3.623-13.621.621-4.627 2.933-8.744 6.515-11.712H34v-2.578c0-10.143 8.276-18.388 18.444-18.388zm46.093-2.378c0 7.215 5.875 13.081 13.1 13.081h.01c7.215 0 13.1-5.866 13.1-13.081zM60.421 73.56a18.37 18.37 0 0 1 11.058 3.69l.05.038c-1.341.69-2.662 1.401-3.923 2.17h.009c-5.444 3.328-9.827 7.155-13.06 11.331L44.13 82.956l1.551-2.058c3.613-4.806 9.137-7.336 14.74-7.336m105.141 0c5.604 0 11.138 2.53 14.751 7.337l1.551 2.058-10.428 7.834c-3.233-4.176-7.615-8.003-13.059-11.33-1.261-.77-2.582-1.471-3.923-2.17l.05-.04a18.36 18.36 0 0 1 11.058-3.688M90.802 34c10.156 0 18.433 8.264 18.433 18.406 0 10.143-8.276 18.408-18.433 18.409-10.167 0-18.434-8.256-18.434-18.409S80.646 34 90.803 34m44.362 0c10.156 0 18.433 8.264 18.433 18.406 0 10.143-8.276 18.408-18.433 18.409-10.167 0-18.433-8.256-18.433-18.409S125.007 34 135.164 34m-44.362 8.315c-5.584 0-10.108 4.516-10.108 10.091 0 5.577 4.524 10.094 10.108 10.094s10.106-4.517 10.106-10.094v-.1a7.03 7.03 0 0 1-5.062 2.14c-3.913 0-7.086-3.168-7.086-7.075a7.06 7.06 0 0 1 2.13-5.056zm44.362 0c-5.584 0-10.108 4.516-10.108 10.091 0 5.577 4.524 10.094 10.108 10.094s10.106-4.517 10.106-10.094v-.1a7.04 7.04 0 0 1-5.062 2.14c-3.913 0-7.086-3.168-7.086-7.075 0-1.989.82-3.767 2.131-5.056z"/></mask><g mask="url(#b)"><path fill="#f85149" d="M102.123-13.105 79.521-35.333 22.758 132.144l22.601 22.228z"/><path fill="#ff965e" d="m123.589 8.012-21.472-21.117-56.763 167.477 21.471 21.117z"/><path fill="#ffe55e" d="M146.197 30.24 123.595 8.012 66.832 175.489l22.601 22.228z"/><path fill="#5ffa74" d="M166.539 50.245 146.198 30.24 89.434 197.717l20.342 20.005z"/><path fill="#59d2f4" d="m189.139 72.474-22.601-22.229-56.764 167.477 22.602 22.229z"/><path fill="#df56f2" d="m210.605 93.59-21.471-21.117L132.37 239.95l21.472 21.117z"/></g></g><defs><clipPath id="a"><path fill="#fff" d="M34 34h158v130H34z"/></clipPath></defs></svg>
