<svg xmlns="http://www.w3.org/2000/svg" viewBox="0 0 150 126.746"><path fill="#42a8c8" d="m0 70.619 33.915 38.852h82.169L150 70.619l-33.916-38.848H33.915z"/><path fill="#426d88" d="M33.915 109.467h82.23v17.279h-82.23z"/><path fill="#428bb4" d="M33.915 126.719.0 87.868V70.619l33.915 38.848z"/><path fill="#16657c" d="m116.085 126.719 33.916-38.848V70.619l-33.916 38.848z"/><path fill="#39b54a" d="M141.084 64.396c0-14.4-29.6-26.1-66.084-26.1S8.946 49.969 8.946 64.396s29.565 26.1 66.054 26.1 66.084-11.7 66.084-26.1z"/><path fill="#009245" d="M141.084 64.399c0 14.4-29.6 26.1-66.084 26.1s-66.054-11.7-66.054-26.1v14.369c4.565 12.653 32.629 26.1 66.054 26.1s61.519-13.45 66.084-26.1V64.399z"/><path fill="#f2c63f" d="M3.401 41.483 75.001 83l71.63-41.513L75.001.0z"/><path fill="#f2b136" d="M3.401 41.483v16.176l71.6 41.514V82.996z"/><path fill="#f2a130" d="M146.63 41.483 75 82.996v16.177l71.63-41.513z"/><path fill="#ff7124" d="M19.24 51.838 130.79 35.6 102.481 3.125z"/><path fill="#d93d1b" d="M19.24 51.838 130.79 35.6v14.645L19.24 66.452z"/></svg>