<svg xmlns="http://www.w3.org/2000/svg" viewBox="-6 -6 302 97"><path fill-rule="evenodd" clip-rule="evenodd" d="M0 46.1844V56.8333L40.8307 76.9545V66.1879L12.9434 52.6561C12.0021 52.1266 10.9431 51.7148 9.94292 51.3618C10.8843 51.0088 11.8844 50.5969 12.8846 50.1263L40.7718 36.5945V26.1221L0 46.1844Z" fill="#FF5C12"/><path fill-rule="evenodd" clip-rule="evenodd" d="M205.918 46.1844V56.8333L165.088 77.0133V66.2467L192.975 52.7149C193.916 52.1854 194.975 51.7736 195.975 51.4206C195.034 51.0676 194.034 50.6558 193.034 50.1851L165.146 36.6533V26.1221L205.918 46.1844Z" fill="#FF5C12"/><path fill-rule="evenodd" clip-rule="evenodd" d="M130.434 84.0735C147.437 84.0735 161.734 70.6006 162.322 53.9506C162.617 45.3609 159.498 37.2418 153.556 31.1231C147.614 24.9455 139.613 21.5332 131.023 21.5332H130.964C127.669 8.94273 116.256 0 102.841 0C91.3689 0 81.0141 6.70705 76.3074 17.1795C67.4235 17.356 59.1279 21.0037 52.8916 27.4165C46.5375 34.0059 43.184 42.7133 43.537 51.8914C44.1842 69.718 59.4809 84.1323 77.7194 84.1323H130.434V84.0735ZM102.783 9.5899C111.431 9.5899 118.785 15.1203 121.256 23.0628C108.784 27.1812 99.7232 38.948 99.7232 52.7739V53.6564H109.372V52.7739C109.372 42.3603 116.726 33.6529 126.551 31.5937L127.61 31.4172C128.199 31.2996 128.728 31.2407 129.258 31.2407C129.846 31.1819 130.434 31.1231 130.964 31.1231C136.906 31.1231 142.437 33.4764 146.496 37.7125C150.614 41.9485 152.733 47.5965 152.556 53.5388C152.144 65.0113 142.201 74.3659 130.317 74.3659H128.199H77.5429C64.4818 74.3659 53.4799 64.07 53.0681 51.4207C52.8327 44.8902 55.1861 38.7126 59.7163 34.0059C64.2465 29.2992 70.3064 26.7105 76.8957 26.7105C80.3669 26.7105 83.4263 24.6514 84.7795 21.4743C87.8977 14.2966 94.9577 9.5899 102.783 9.5899Z" fill="#FF5C12"/></svg>